<mxfile host="Electron" agent="Mozilla/5.0 (Windows NT 10.0; Win64; x64) AppleWebKit/537.36 (KHTML, like Gecko) draw.io/24.7.5 Chrome/126.0.6478.183 Electron/31.3.0 Safari/537.36" version="24.7.5">
  <diagram name="第 1 页" id="XXmtkylyyddY4V247Yhy">
    <mxGraphModel dx="1434" dy="844" grid="1" gridSize="10" guides="1" tooltips="1" connect="1" arrows="1" fold="1" page="1" pageScale="1" pageWidth="1169" pageHeight="827" math="0" shadow="0">
      <root>
        <mxCell id="0" />
        <mxCell id="1" parent="0" />
        <mxCell id="1QkeD9lGPXieRPBgmQNt-25" style="edgeStyle=orthogonalEdgeStyle;rounded=0;orthogonalLoop=1;jettySize=auto;html=1;entryX=0;entryY=0.5;entryDx=0;entryDy=0;" edge="1" parent="1" source="1QkeD9lGPXieRPBgmQNt-26" target="1QkeD9lGPXieRPBgmQNt-29">
          <mxGeometry relative="1" as="geometry" />
        </mxCell>
        <mxCell id="1QkeD9lGPXieRPBgmQNt-26" value="用戶 A&amp;nbsp;" style="verticalLabelPosition=bottom;aspect=fixed;html=1;shape=mxgraph.salesforce.web;" vertex="1" parent="1">
          <mxGeometry x="220" y="181.29999999999998" width="47.34" height="37.4" as="geometry" />
        </mxCell>
        <mxCell id="1QkeD9lGPXieRPBgmQNt-28" style="edgeStyle=orthogonalEdgeStyle;rounded=0;orthogonalLoop=1;jettySize=auto;html=1;exitX=1;exitY=0.5;exitDx=0;exitDy=0;entryX=0.014;entryY=0.389;entryDx=0;entryDy=0;entryPerimeter=0;" edge="1" parent="1" source="1QkeD9lGPXieRPBgmQNt-29" target="1QkeD9lGPXieRPBgmQNt-31">
          <mxGeometry relative="1" as="geometry">
            <mxPoint x="480" y="200" as="targetPoint" />
          </mxGeometry>
        </mxCell>
        <mxCell id="1QkeD9lGPXieRPBgmQNt-29" value="Producer&lt;div&gt;Port：9092&lt;/div&gt;" style="rounded=0;whiteSpace=wrap;html=1;" vertex="1" parent="1">
          <mxGeometry x="340" y="179.35" width="70" height="41.3" as="geometry" />
        </mxCell>
        <mxCell id="1QkeD9lGPXieRPBgmQNt-30" style="edgeStyle=orthogonalEdgeStyle;rounded=0;orthogonalLoop=1;jettySize=auto;html=1;endArrow=none;endFill=0;dashed=1;" edge="1" parent="1" source="1QkeD9lGPXieRPBgmQNt-31" target="1QkeD9lGPXieRPBgmQNt-41">
          <mxGeometry relative="1" as="geometry">
            <Array as="points">
              <mxPoint x="580" y="366" />
              <mxPoint x="580" y="366" />
            </Array>
          </mxGeometry>
        </mxCell>
        <mxCell id="1QkeD9lGPXieRPBgmQNt-31" value="伺服器: 192.168.51.28" style="image;aspect=fixed;perimeter=ellipsePerimeter;html=1;align=center;shadow=0;dashed=0;spacingTop=3;image=img/lib/active_directory/web_server.svg;" vertex="1" parent="1">
          <mxGeometry x="480" y="310" width="72" height="90" as="geometry" />
        </mxCell>
        <mxCell id="1QkeD9lGPXieRPBgmQNt-32" style="edgeStyle=orthogonalEdgeStyle;rounded=0;orthogonalLoop=1;jettySize=auto;html=1;entryX=0;entryY=0.5;entryDx=0;entryDy=0;" edge="1" parent="1" source="1QkeD9lGPXieRPBgmQNt-33" target="1QkeD9lGPXieRPBgmQNt-35">
          <mxGeometry relative="1" as="geometry" />
        </mxCell>
        <mxCell id="1QkeD9lGPXieRPBgmQNt-33" value="用戶 B" style="verticalLabelPosition=bottom;aspect=fixed;html=1;shape=mxgraph.salesforce.web;" vertex="1" parent="1">
          <mxGeometry x="220" y="341.95" width="47.34" height="37.4" as="geometry" />
        </mxCell>
        <mxCell id="1QkeD9lGPXieRPBgmQNt-34" style="edgeStyle=orthogonalEdgeStyle;rounded=0;orthogonalLoop=1;jettySize=auto;html=1;exitX=1;exitY=0.5;exitDx=0;exitDy=0;" edge="1" parent="1" source="1QkeD9lGPXieRPBgmQNt-35">
          <mxGeometry relative="1" as="geometry">
            <mxPoint x="480" y="360.65" as="targetPoint" />
          </mxGeometry>
        </mxCell>
        <mxCell id="1QkeD9lGPXieRPBgmQNt-35" value="Producer&lt;div&gt;Port：9094&lt;/div&gt;" style="rounded=0;whiteSpace=wrap;html=1;" vertex="1" parent="1">
          <mxGeometry x="340" y="340" width="70" height="41.3" as="geometry" />
        </mxCell>
        <mxCell id="1QkeD9lGPXieRPBgmQNt-36" style="edgeStyle=orthogonalEdgeStyle;rounded=0;orthogonalLoop=1;jettySize=auto;html=1;entryX=0;entryY=0.5;entryDx=0;entryDy=0;" edge="1" parent="1" source="1QkeD9lGPXieRPBgmQNt-37" target="1QkeD9lGPXieRPBgmQNt-39">
          <mxGeometry relative="1" as="geometry" />
        </mxCell>
        <mxCell id="1QkeD9lGPXieRPBgmQNt-37" value="用戶 C" style="verticalLabelPosition=bottom;aspect=fixed;html=1;shape=mxgraph.salesforce.web;" vertex="1" parent="1">
          <mxGeometry x="220" y="501.94999999999993" width="47.34" height="37.4" as="geometry" />
        </mxCell>
        <mxCell id="1QkeD9lGPXieRPBgmQNt-38" style="edgeStyle=orthogonalEdgeStyle;rounded=0;orthogonalLoop=1;jettySize=auto;html=1;exitX=1;exitY=0.5;exitDx=0;exitDy=0;entryX=0;entryY=0.75;entryDx=0;entryDy=0;" edge="1" parent="1" source="1QkeD9lGPXieRPBgmQNt-39" target="1QkeD9lGPXieRPBgmQNt-31">
          <mxGeometry relative="1" as="geometry">
            <mxPoint x="480" y="520.65" as="targetPoint" />
            <Array as="points">
              <mxPoint x="446" y="521" />
              <mxPoint x="446" y="375" />
            </Array>
          </mxGeometry>
        </mxCell>
        <mxCell id="1QkeD9lGPXieRPBgmQNt-39" value="Producer&lt;div&gt;Port：9096&lt;/div&gt;" style="rounded=0;whiteSpace=wrap;html=1;" vertex="1" parent="1">
          <mxGeometry x="340" y="500" width="70" height="41.3" as="geometry" />
        </mxCell>
        <mxCell id="1QkeD9lGPXieRPBgmQNt-40" value="Kafka-0&lt;div&gt;Port：9092&lt;/div&gt;" style="image;aspect=fixed;html=1;points=[];align=center;fontSize=12;image=img/lib/azure2/other/Container_App_Environments.svg;" vertex="1" parent="1">
          <mxGeometry x="640" y="190" width="68" height="68" as="geometry" />
        </mxCell>
        <mxCell id="1QkeD9lGPXieRPBgmQNt-41" value="Kafka-1&lt;div&gt;Port：9094&lt;/div&gt;" style="image;aspect=fixed;html=1;points=[];align=center;fontSize=12;image=img/lib/azure2/other/Container_App_Environments.svg;" vertex="1" parent="1">
          <mxGeometry x="640" y="331.65" width="68" height="68" as="geometry" />
        </mxCell>
        <mxCell id="1QkeD9lGPXieRPBgmQNt-42" value="Kafka-2&lt;div&gt;Port：9096&lt;/div&gt;" style="image;aspect=fixed;html=1;points=[];align=center;fontSize=12;image=img/lib/azure2/other/Container_App_Environments.svg;" vertex="1" parent="1">
          <mxGeometry x="640" y="483.94999999999993" width="68" height="68" as="geometry" />
        </mxCell>
        <mxCell id="1QkeD9lGPXieRPBgmQNt-43" style="edgeStyle=orthogonalEdgeStyle;rounded=0;orthogonalLoop=1;jettySize=auto;html=1;entryX=0.015;entryY=0.515;entryDx=0;entryDy=0;dashed=1;endArrow=none;endFill=0;exitX=1;exitY=0.25;exitDx=0;exitDy=0;entryPerimeter=0;" edge="1" parent="1" source="1QkeD9lGPXieRPBgmQNt-31" target="1QkeD9lGPXieRPBgmQNt-40">
          <mxGeometry relative="1" as="geometry">
            <mxPoint x="718" y="235" as="sourcePoint" />
            <mxPoint x="840" y="365" as="targetPoint" />
            <Array as="points">
              <mxPoint x="600" y="335" />
              <mxPoint x="600" y="225" />
            </Array>
          </mxGeometry>
        </mxCell>
        <mxCell id="1QkeD9lGPXieRPBgmQNt-44" style="edgeStyle=orthogonalEdgeStyle;rounded=0;orthogonalLoop=1;jettySize=auto;html=1;entryX=-0.044;entryY=0.515;entryDx=0;entryDy=0;dashed=1;endArrow=none;endFill=0;entryPerimeter=0;exitX=0.972;exitY=0.911;exitDx=0;exitDy=0;exitPerimeter=0;" edge="1" parent="1" source="1QkeD9lGPXieRPBgmQNt-31" target="1QkeD9lGPXieRPBgmQNt-42">
          <mxGeometry relative="1" as="geometry">
            <mxPoint x="551" y="364" as="sourcePoint" />
            <mxPoint x="651" y="235" as="targetPoint" />
            <Array as="points">
              <mxPoint x="551" y="392" />
              <mxPoint x="551" y="390" />
              <mxPoint x="600" y="390" />
              <mxPoint x="600" y="519" />
            </Array>
          </mxGeometry>
        </mxCell>
        <mxCell id="1QkeD9lGPXieRPBgmQNt-45" value="" style="endArrow=none;html=1;rounded=0;strokeWidth=4;strokeColor=#CC0000;" edge="1" parent="1">
          <mxGeometry width="50" height="50" relative="1" as="geometry">
            <mxPoint x="350" y="225" as="sourcePoint" />
            <mxPoint x="400" y="175" as="targetPoint" />
          </mxGeometry>
        </mxCell>
        <mxCell id="1QkeD9lGPXieRPBgmQNt-46" value="" style="endArrow=none;html=1;rounded=0;strokeWidth=4;strokeColor=#CC0000;" edge="1" parent="1">
          <mxGeometry width="50" height="50" relative="1" as="geometry">
            <mxPoint x="400" y="225" as="sourcePoint" />
            <mxPoint x="350" y="175" as="targetPoint" />
          </mxGeometry>
        </mxCell>
        <mxCell id="1QkeD9lGPXieRPBgmQNt-47" value="" style="endArrow=none;html=1;rounded=0;strokeWidth=4;strokeColor=#CC0000;" edge="1" parent="1">
          <mxGeometry width="50" height="50" relative="1" as="geometry">
            <mxPoint x="649" y="300" as="sourcePoint" />
            <mxPoint x="699" y="250" as="targetPoint" />
          </mxGeometry>
        </mxCell>
        <mxCell id="1QkeD9lGPXieRPBgmQNt-48" value="" style="endArrow=none;html=1;rounded=0;strokeWidth=4;strokeColor=#CC0000;" edge="1" parent="1">
          <mxGeometry width="50" height="50" relative="1" as="geometry">
            <mxPoint x="699" y="300" as="sourcePoint" />
            <mxPoint x="649" y="250" as="targetPoint" />
          </mxGeometry>
        </mxCell>
      </root>
    </mxGraphModel>
  </diagram>
</mxfile>
